<svg width="199" height="71" viewBox="0 0 199 71" fill="none" xmlns="http://www.w3.org/2000/svg">
<path d="M26.88 42H22.16L19.6 35.28H7.8L5.24 42H0.6L11.76 14H15.72L26.88 42ZM18.12 31.16L13.72 19.68L9.32 31.16H18.12ZM44.7409 27C46.2343 27.5067 47.4209 28.36 48.3009 29.56C49.2076 30.7333 49.6609 32.1333 49.6609 33.76C49.6609 35.3333 49.2609 36.7467 48.4609 38C47.6876 39.2533 46.5543 40.24 45.0609 40.96C43.5676 41.6533 41.7943 42 39.7409 42H31.0609V14H39.2209C42.1009 14 44.3543 14.68 45.9809 16.04C47.6343 17.4 48.4609 19.2 48.4609 21.44C48.4609 22.64 48.1143 23.7467 47.4209 24.76C46.7543 25.7467 45.8609 26.4933 44.7409 27ZM35.4609 17.88V25.6H39.2209C40.7143 25.6 41.8743 25.24 42.7009 24.52C43.5543 23.8 43.9809 22.8667 43.9809 21.72C43.9809 20.6 43.5543 19.68 42.7009 18.96C41.8476 18.24 40.6876 17.88 39.2209 17.88H35.4609ZM39.8209 38.08C41.4476 38.08 42.7409 37.6667 43.7009 36.84C44.6609 35.9867 45.1409 34.9333 45.1409 33.68C45.1409 32.4267 44.6609 31.3867 43.7009 30.56C42.7409 29.7067 41.4476 29.28 39.8209 29.28H35.4609V38.08H39.8209ZM68.0853 42.44C65.4186 42.44 62.9653 41.8133 60.7253 40.56C58.4853 39.28 56.712 37.5467 55.4053 35.36C54.0986 33.1467 53.4453 30.6933 53.4453 28C53.4453 25.3067 54.0986 22.8667 55.4053 20.68C56.712 18.4667 58.4853 16.7333 60.7253 15.48C62.9653 14.2 65.4186 13.56 68.0853 13.56C70.752 13.56 73.192 14.2 75.4053 15.48C77.6453 16.7333 79.4186 18.4667 80.7253 20.68C82.032 22.8667 82.6853 25.3067 82.6853 28C82.6853 30.6933 82.032 33.1467 80.7253 35.36C79.4186 37.5467 77.6453 39.28 75.4053 40.56C73.192 41.8133 70.752 42.44 68.0853 42.44ZM68.0853 38.32C69.952 38.32 71.6453 37.8667 73.1653 36.96C74.712 36.0533 75.9253 34.8133 76.8053 33.24C77.712 31.6667 78.1653 29.92 78.1653 28C78.1653 26.08 77.712 24.3333 76.8053 22.76C75.9253 21.16 74.712 19.9067 73.1653 19C71.6453 18.0933 69.952 17.64 68.0853 17.64C66.2186 17.64 64.512 18.0933 62.9653 19C61.4186 19.9067 60.192 21.16 59.2853 22.76C58.4053 24.3333 57.9653 26.08 57.9653 28C57.9653 29.92 58.4053 31.6667 59.2853 33.24C60.192 34.8133 61.4186 36.0533 62.9653 36.96C64.512 37.8667 66.2186 38.32 68.0853 38.32ZM98.8075 42.44C96.6208 42.44 94.7008 41.9867 93.0475 41.08C91.3942 40.1467 90.1142 38.84 89.2075 37.16C88.3275 35.48 87.8875 33.56 87.8875 31.4V14H92.2875V31.24C92.2875 33.3733 92.8608 35.0933 94.0075 36.4C95.1542 37.68 96.7542 38.32 98.8075 38.32C100.861 38.32 102.461 37.68 103.608 36.4C104.781 35.0933 105.368 33.3733 105.368 31.24V14H109.768V31.4C109.768 33.56 109.314 35.48 108.408 37.16C107.528 38.84 106.248 40.1467 104.568 41.08C102.914 41.9867 100.994 42.44 98.8075 42.44ZM125.369 42H120.969V18.08H113.889V14H132.449V18.08H125.369V42Z" fill="white"/>
<path d="M98.4935 57.3704C97.8144 56.3297 98.1075 54.9356 99.1481 54.2564C100.189 53.5773 101.583 53.8704 102.262 54.911L98.4935 57.3704ZM161.706 63.8965L163.955 63.9828L161.706 63.8965ZM197.184 44.357C198.368 44.7347 199.021 46.0006 198.643 47.1845L192.487 66.4761C192.11 67.6599 190.844 68.3133 189.66 67.9356C188.476 67.5578 187.823 66.2919 188.2 65.1081L193.672 47.96L176.524 42.488C175.341 42.1102 174.687 40.8443 175.065 39.6604C175.443 38.4766 176.709 37.8232 177.892 38.2009L197.184 44.357ZM102.262 54.911C103.614 56.9833 105.046 58.1412 106.447 58.7337C107.847 59.3257 109.407 59.4345 111.157 59.0843C114.763 58.3624 118.869 55.7489 122.969 52.1543L125.936 55.538C121.68 59.2694 116.838 62.5364 112.04 63.4968C109.588 63.9877 107.082 63.8882 104.694 62.8783C102.308 61.8689 100.23 60.0312 98.4935 57.3704L102.262 54.911ZM161.077 52.5145C162.884 56.0779 164.108 59.9941 163.955 63.9828L159.458 63.8103C159.572 60.841 158.662 57.7005 157.064 54.5502L161.077 52.5145ZM163.955 63.9828C163.888 65.7193 164.108 66.4499 164.225 66.663C164.252 66.7114 164.207 66.6161 164.054 66.5414C163.917 66.4741 163.858 66.5055 163.986 66.4927C164.335 66.4581 165.053 66.213 166.252 65.4922C167.394 64.8059 168.749 63.8281 170.321 62.6094C176.491 57.8288 185.633 49.5779 195.468 44.5011L197.532 48.4998C188.185 53.3246 179.65 61.0735 173.078 66.1664C171.465 67.416 169.943 68.5237 168.57 69.349C167.255 70.1399 165.821 70.8324 164.432 70.9706C163.692 71.0442 162.868 70.9708 162.077 70.5835C161.27 70.1888 160.682 69.5585 160.283 68.8329C159.548 67.498 159.385 65.7246 159.458 63.8103L163.955 63.9828ZM122.969 52.1543C128.667 47.1587 136.141 43.627 143.204 43.0871C150.372 42.5391 157.319 45.1074 161.077 52.5145L157.064 54.5502C154.32 49.1413 149.361 47.1295 143.547 47.574C137.628 48.0265 131.044 51.0598 125.936 55.538L122.969 52.1543Z" fill="white"/>
</svg>
