<svg width="43" height="82" viewBox="0 0 43 82" fill="none" xmlns="http://www.w3.org/2000/svg">
<path d="M24.7133 7.86888C25.2991 8.45467 26.2488 8.45467 26.8346 7.86888C27.4204 7.28309 27.4204 6.33335 26.8346 5.74756L24.7133 7.86888ZM21.6729 2.70711L20.6122 3.76777L20.6122 3.76777L21.6729 2.70711ZM20.2586 2.70711L21.3193 3.76777L21.3193 3.76777L20.2586 2.70711ZM2.70711 20.2586L3.76777 21.3193L3.76777 21.3193L2.70711 20.2586ZM2.70711 21.6729L3.76777 20.6122L3.76777 20.6122L2.70711 21.6729ZM40.2929 59.2586L41.3536 58.198L41.3536 58.198L40.2929 59.2586ZM40.2929 60.6729L39.2322 59.6122L39.2322 59.6122L40.2929 60.6729ZM19.4658 80C19.4658 80.8284 20.1373 81.5 20.9658 81.5L34.4658 81.5C35.2942 81.5 35.9658 80.8284 35.9658 80C35.9658 79.1716 35.2942 78.5 34.4658 78.5L22.4658 78.5L22.4658 66.5C22.4658 65.6716 21.7942 65 20.9658 65C20.1373 65 19.4658 65.6716 19.4658 66.5L19.4658 80ZM26.8346 5.74756L22.7335 1.64645L20.6122 3.76777L24.7133 7.86888L26.8346 5.74756ZM19.198 1.64645L1.64645 19.198L3.76777 21.3193L21.3193 3.76777L19.198 1.64645ZM1.64645 22.7335L39.2322 60.3193L41.3536 58.198L3.76777 20.6122L1.64645 22.7335ZM39.2322 59.6122L19.9051 78.9393L22.0264 81.0607L41.3536 61.7335L39.2322 59.6122ZM39.2322 60.3193C39.037 60.124 39.037 59.8075 39.2322 59.6122L41.3536 61.7335C42.3299 60.7572 42.3299 59.1743 41.3536 58.198L39.2322 60.3193ZM1.64645 19.198C0.670133 20.1743 0.670137 21.7572 1.64645 22.7335L3.76777 20.6122C3.96303 20.8075 3.96303 21.124 3.76777 21.3193L1.64645 19.198ZM22.7335 1.64645C21.7572 0.670135 20.1743 0.670136 19.198 1.64645L21.3193 3.76777C21.124 3.96303 20.8075 3.96303 20.6122 3.76777L22.7335 1.64645Z" fill="#454545"/>
</svg>
