<svg width="295" height="79" viewBox="0 0 295 79" fill="none" xmlns="http://www.w3.org/2000/svg">
<path d="M108.4 37C110.373 37 112.093 37.3733 113.56 38.12C115.027 38.84 116.16 39.8533 116.96 41.16C117.76 42.44 118.16 43.8933 118.16 45.52C118.16 47.1467 117.76 48.6133 116.96 49.92C116.16 51.2 115.027 52.2133 113.56 52.96C112.093 53.68 110.373 54.04 108.4 54.04H104V65H99.6V37H108.4ZM108.36 49.92C110.013 49.92 111.307 49.52 112.24 48.72C113.173 47.8933 113.64 46.8267 113.64 45.52C113.64 44.2133 113.173 43.1467 112.24 42.32C111.307 41.4933 110.013 41.08 108.36 41.08H104V49.92H108.36ZM139.358 65L130.318 54.04H127.438V65H123.038V37H131.838C133.811 37 135.531 37.3733 136.998 38.12C138.464 38.84 139.598 39.8533 140.398 41.16C141.198 42.44 141.598 43.8933 141.598 45.52C141.598 47.4667 141.038 49.16 139.918 50.6C138.824 52.0133 137.304 53 135.358 53.56L144.838 65H139.358ZM127.438 41.08V49.92H131.798C133.451 49.92 134.744 49.52 135.678 48.72C136.611 47.8933 137.078 46.8267 137.078 45.52C137.078 44.2133 136.611 43.1467 135.678 42.32C134.744 41.4933 133.451 41.08 131.798 41.08H127.438ZM161.39 65.44C158.723 65.44 156.27 64.8133 154.03 63.56C151.79 62.28 150.017 60.5467 148.71 58.36C147.403 56.1467 146.75 53.6933 146.75 51C146.75 48.3067 147.403 45.8667 148.71 43.68C150.017 41.4667 151.79 39.7333 154.03 38.48C156.27 37.2 158.723 36.56 161.39 36.56C164.057 36.56 166.497 37.2 168.71 38.48C170.95 39.7333 172.723 41.4667 174.03 43.68C175.337 45.8667 175.99 48.3067 175.99 51C175.99 53.6933 175.337 56.1467 174.03 58.36C172.723 60.5467 170.95 62.28 168.71 63.56C166.497 64.8133 164.057 65.44 161.39 65.44ZM161.39 61.32C163.257 61.32 164.95 60.8667 166.47 59.96C168.017 59.0533 169.23 57.8133 170.11 56.24C171.017 54.6667 171.47 52.92 171.47 51C171.47 49.08 171.017 47.3333 170.11 45.76C169.23 44.16 168.017 42.9067 166.47 42C164.95 41.0933 163.257 40.64 161.39 40.64C159.523 40.64 157.817 41.0933 156.27 42C154.723 42.9067 153.497 44.16 152.59 45.76C151.71 47.3333 151.27 49.08 151.27 51C151.27 52.92 151.71 54.6667 152.59 56.24C153.497 57.8133 154.723 59.0533 156.27 59.96C157.817 60.8667 159.523 61.32 161.39 61.32ZM186.291 65.44C184.531 65.44 182.971 65.0533 181.611 64.28C180.251 63.48 179.198 62.4 178.451 61.04C177.704 59.68 177.331 58.16 177.331 56.48H181.731C181.731 57.9467 182.144 59.12 182.971 60C183.824 60.88 184.931 61.32 186.291 61.32C187.678 61.32 188.771 60.8667 189.571 59.96C190.398 59.0267 190.811 57.7467 190.811 56.12V37H195.211V56.16C195.211 57.9467 194.838 59.5467 194.091 60.96C193.344 62.3733 192.291 63.48 190.931 64.28C189.598 65.0533 188.051 65.44 186.291 65.44ZM206.422 52.6V60.88H218.262V65H202.022V37H217.862V41.08H206.422V48.48H217.462V52.6H206.422ZM237.128 65.44C234.515 65.44 232.102 64.8133 229.888 63.56C227.675 62.28 225.915 60.5467 224.608 58.36C223.302 56.1467 222.648 53.6933 222.648 51C222.648 48.3067 223.302 45.8533 224.608 43.64C225.915 41.4267 227.675 39.6933 229.888 38.44C232.102 37.1867 234.515 36.56 237.128 36.56C240.275 36.56 243.022 37.4267 245.368 39.16C247.742 40.8933 249.448 43.24 250.488 46.2H245.888C245.062 44.4933 243.875 43.1467 242.328 42.16C240.808 41.1467 239.075 40.64 237.128 40.64C235.288 40.64 233.608 41.1067 232.088 42.04C230.568 42.9467 229.368 44.1867 228.488 45.76C227.608 47.3333 227.168 49.08 227.168 51C227.168 52.92 227.608 54.6667 228.488 56.24C229.368 57.8133 230.568 59.0533 232.088 59.96C233.608 60.8667 235.288 61.32 237.128 61.32C239.128 61.32 240.888 60.8267 242.408 59.84C243.955 58.8267 245.142 57.48 245.968 55.8H250.568C249.528 58.76 247.822 61.1067 245.448 62.84C243.075 64.5733 240.302 65.44 237.128 65.44ZM263.283 65H258.883V41.08H251.803V37H270.363V41.08H263.283V65ZM282.723 65.44C280.723 65.44 278.963 65.08 277.443 64.36C275.949 63.6133 274.789 62.5733 273.963 61.24C273.136 59.9067 272.709 58.3733 272.683 56.64H277.163C277.216 58.08 277.709 59.24 278.643 60.12C279.603 61 280.949 61.44 282.683 61.44C284.256 61.44 285.483 61.0933 286.363 60.4C287.269 59.7067 287.723 58.76 287.723 57.56C287.723 56.6267 287.456 55.8667 286.923 55.28C286.416 54.6933 285.776 54.2267 285.003 53.88C284.229 53.5067 283.149 53.0933 281.763 52.64C279.949 52.0267 278.496 51.4533 277.403 50.92C276.309 50.36 275.363 49.5333 274.563 48.44C273.789 47.3467 273.403 45.9067 273.403 44.12C273.403 42.68 273.789 41.3867 274.563 40.24C275.363 39.0933 276.456 38.2 277.843 37.56C279.256 36.8933 280.843 36.56 282.603 36.56C284.256 36.56 285.763 36.9067 287.123 37.6C288.509 38.2667 289.616 39.2267 290.443 40.48C291.296 41.7067 291.736 43.1333 291.763 44.76H287.323C287.269 43.5333 286.803 42.5333 285.923 41.76C285.069 40.96 283.923 40.56 282.483 40.56C281.149 40.56 280.056 40.88 279.203 41.52C278.349 42.16 277.923 43.0533 277.923 44.2C277.923 45.08 278.176 45.8133 278.683 46.4C279.189 46.9867 279.829 47.4533 280.603 47.8C281.403 48.1467 282.469 48.5333 283.803 48.96C285.616 49.5733 287.069 50.16 288.163 50.72C289.283 51.28 290.243 52.12 291.043 53.24C291.843 54.36 292.243 55.8267 292.243 57.64C292.243 59.1067 291.843 60.44 291.043 61.64C290.243 62.8133 289.123 63.7467 287.683 64.44C286.243 65.1067 284.589 65.44 282.723 65.44Z" fill="black"/>
<path d="M17.1133 3.67938C17.4886 2.49475 16.8324 1.23022 15.6478 0.854966C14.4632 0.479714 13.1986 1.13584 12.8234 2.32047L17.1133 3.67938ZM71.4604 76.285C72.628 76.7103 73.9193 76.1085 74.3446 74.9409L81.2745 55.9136C81.6998 54.7459 81.098 53.4547 79.9304 53.0294C78.7628 52.6042 77.4715 53.206 77.0462 54.3736L70.8863 71.2867L53.9731 65.1268C52.8055 64.7015 51.5142 65.3033 51.089 66.4709C50.6637 67.6385 51.2655 68.9298 52.4331 69.3551L71.4604 76.285ZM32.576 44.9744L32.9071 42.7489L32.576 44.9744ZM12.8234 2.32047C7.99567 17.561 10.4032 28.0797 15.0594 35.1153C19.6423 42.0403 26.1718 45.2374 29.023 46.3741L30.6895 42.194C28.2477 41.2206 22.6776 38.4728 18.812 32.6318C15.0197 26.9015 12.6298 17.8332 17.1133 3.67938L12.8234 2.32047ZM32.2448 47.1999C34.3622 47.515 38.609 48.0924 43.2961 48.4222C47.9376 48.7487 53.1978 48.8476 57.2628 48.1296C59.268 47.7754 61.2496 47.1798 62.7199 46.1062C63.4818 45.5499 64.1636 44.8234 64.5987 43.8856C65.0414 42.9315 65.1655 41.8936 65.0078 40.8349C64.7081 38.8236 63.4019 36.7651 61.4345 34.6401C59.4195 32.4637 56.4735 29.9676 52.45 27.0891L49.8317 30.7489C53.7303 33.5381 56.4065 35.8332 58.1325 37.6973C59.9061 39.613 60.4595 40.8444 60.5569 41.4979C60.5977 41.7717 60.5546 41.91 60.5167 41.9916C60.4713 42.0895 60.3592 42.258 60.0662 42.472C59.4266 42.939 58.2543 43.3847 56.48 43.6982C52.986 44.3154 48.1851 44.255 43.6119 43.9333C39.0843 43.6148 34.9629 43.0548 32.9071 42.7489L32.2448 47.1999ZM52.45 27.0891C48.0554 23.9451 44.8194 21.9136 42.5781 20.8908C41.5117 20.4042 40.3769 20.0038 39.3336 20.0176C38.7689 20.0251 38.044 20.1564 37.395 20.6524C36.7139 21.173 36.3916 21.8835 36.2753 22.5174C36.0765 23.6 36.422 24.7273 36.7398 25.5512C37.0994 26.4834 37.6371 27.5416 38.2824 28.6716C39.5776 30.9394 41.4462 33.7361 43.6116 36.8089C47.9264 42.9317 53.661 50.4828 58.7098 57.4395C63.8399 64.5084 68.2401 70.9353 70.191 75.1213L74.2698 73.2204C72.1027 68.5705 67.4257 61.7879 62.3517 54.7964C57.1964 47.6929 51.6001 40.3329 47.29 34.2167C45.1429 31.17 43.3754 28.5152 42.19 26.4398C41.5951 25.3983 41.1814 24.562 40.9384 23.9318C40.6535 23.1934 40.7452 23.0905 40.7013 23.33C40.6623 23.5424 40.5196 23.9281 40.1277 24.2277C39.7679 24.5026 39.4419 24.5166 39.3931 24.5172C39.3818 24.5174 39.7475 24.5455 40.71 24.9847C42.5265 25.8137 45.462 27.6228 49.8317 30.7489L52.45 27.0891ZM29.023 46.3741C30.1203 46.8116 31.2107 47.0461 32.2448 47.1999L32.9071 42.7489C32.0697 42.6243 31.3497 42.4573 30.6895 42.194L29.023 46.3741Z" fill="black"/>
</svg>
