<svg width="73" height="78" viewBox="0 0 73 78" fill="none" xmlns="http://www.w3.org/2000/svg">
<path fill-rule="evenodd" clip-rule="evenodd" d="M6.2638 0.995601C7.44843 1.37085 8.10456 2.63539 7.7293 3.82001C3.24583 17.9738 5.63567 27.0421 9.42802 32.7725C13.2936 38.6134 18.8637 41.3612 21.3055 42.3347C21.9657 42.5979 22.6857 42.765 23.5231 42.8896C25.5789 43.1955 29.7003 43.7554 34.2279 44.0739C35.9973 44.1984 37.8007 44.2838 39.5493 44.3059C37.6504 41.7247 35.8399 39.2374 34.2276 36.9495C32.0622 33.8768 30.1936 31.08 28.8984 28.8122C28.2531 27.6822 27.7154 26.624 27.3558 25.6919C27.038 24.8679 26.6925 23.7406 26.8913 22.658C27.0076 22.0241 27.3299 21.3136 28.011 20.7931C28.66 20.297 29.3849 20.1657 29.9496 20.1582C30.9929 20.1444 32.1277 20.5449 33.1941 21.0315C35.4354 22.0542 38.6714 24.0858 43.066 27.2297C47.0895 30.1082 50.0355 32.6044 52.0505 34.7808C54.0179 36.9057 55.3241 38.9642 55.6238 40.9755C55.7815 42.0343 55.6574 43.0721 55.2147 44.0262C54.7796 44.964 54.0978 45.6905 53.3359 46.2469C51.9078 47.2896 49.9974 47.8814 48.0514 48.2391C49.6981 50.4662 51.3545 52.7142 52.9677 54.9371C56.5799 59.9143 59.9909 64.7857 62.4384 68.8571L67.6622 54.5142C68.0875 53.3466 69.3788 52.7448 70.5464 53.1701C71.714 53.5953 72.3158 54.8866 71.8905 56.0542L64.9606 75.0815C64.5353 76.2491 63.244 76.8509 62.0764 76.4256L43.0491 69.4957C41.8815 69.0704 41.2797 67.7792 41.705 66.6116C42.1302 65.4439 43.4215 64.8421 44.5891 65.2674L57.9446 70.1316C55.6977 66.5144 52.6665 62.1834 49.3258 57.5802C47.2857 54.7692 45.1338 51.8612 43.0087 48.9896C42.9537 48.9153 42.8986 48.8409 42.8436 48.7666C39.9176 48.8807 36.7954 48.7657 33.9121 48.5628C29.225 48.2331 24.9782 47.6556 22.8608 47.3406C21.8267 47.1867 20.7363 46.9522 19.639 46.5147C16.7878 45.378 10.2583 42.1809 5.67538 35.256C1.01925 28.2204 -1.38833 17.7017 3.43939 2.4611C3.81464 1.27648 5.07918 0.620349 6.2638 0.995601ZM45.0019 44.1174C45.7392 44.0465 46.4406 43.9546 47.096 43.8388C48.8703 43.5254 50.0426 43.0796 50.6822 42.6126C50.9752 42.3987 51.0873 42.2301 51.1327 42.1322C51.1705 42.0507 51.2137 41.9123 51.1729 41.6386C51.0755 40.985 50.5221 39.7536 48.7485 37.838C47.0225 35.9738 44.3463 33.6787 40.4477 30.8896C36.7606 28.2518 34.0946 26.5516 32.2604 25.5869C32.4215 25.8942 32.6032 26.2254 32.806 26.5805C33.9914 28.6559 35.7589 31.3106 37.906 34.3573C40.0282 37.3688 42.4623 40.6819 45.0019 44.1174Z" stroke="black"/>
</svg>
