<svg width="495" height="140" viewBox="0 0 495 140" fill="none" xmlns="http://www.w3.org/2000/svg">
<path d="M285.664 140V83.8L240.84 0H273.026L305.213 64H295.537L327.724 0H359.318L314.099 83.8V140H285.664Z" fill="#3C3C3C"/>
<path d="M115.162 140L168.872 0H197.109L250.819 140H220.607L205.995 99.2L205.008 94L178.943 22.6H186.644L160.973 94L159.591 99.2L144.979 140H115.162ZM147.743 111V84.6H217.843V111H147.743Z" fill="#3C3C3C"/>
<path d="M0 140V0H46.6015C57.2646 0 66.4796 1.93334 74.2465 5.80001C82.1451 9.66668 88.1348 15 92.2157 21.8C96.4283 28.6 98.5346 36.4667 98.5346 45.4C98.5346 54.2 96.4283 62 92.2157 68.8C88.1348 75.6 82.1451 80.9333 74.2465 84.8C66.4796 88.6667 57.2646 90.6 46.6015 90.6H21.3261V64.4H46.2066C51.209 64.4 55.4216 63.6 58.8443 62C62.3987 60.2667 65.0315 57.9333 66.7429 55C68.5859 52.0667 69.5074 48.8667 69.5074 45.4C69.5074 41.8 68.5859 38.6 66.7429 35.8C65.0315 32.8667 62.3987 30.6 58.8443 29C55.4216 27.2667 51.209 26.4 46.2066 26.4H28.4348V140H0ZM79.973 140L31.5943 80.2H66.5454L115.319 140H79.973Z" fill="#3C3C3C"/>
<path d="M486.525 29.0956C487.741 28.2422 488.744 27.1009 489.533 25.6716C490.344 24.2422 490.941 22.6742 491.325 20.9676C491.731 19.2396 491.933 17.4476 491.933 15.5916C491.955 13.7356 491.763 11.9542 491.357 10.2476C490.952 8.51956 490.344 6.9409 489.533 5.51156C488.744 4.08223 487.741 2.9409 486.525 2.08756C486.419 2.02356 486.365 1.93823 486.365 1.83156C486.365 1.7249 486.387 1.63956 486.429 1.57556C486.472 1.49023 486.536 1.42623 486.621 1.38356C486.707 1.3409 486.792 1.3409 486.877 1.38356C488.605 2.19423 490.045 3.34623 491.197 4.83956C492.349 6.3329 493.213 7.9969 493.789 9.83156C494.365 11.6662 494.653 13.5862 494.653 15.5916C494.653 17.5969 494.365 19.5169 493.789 21.3516C493.213 23.1862 492.349 24.8502 491.197 26.3436C490.045 27.8369 488.605 28.9889 486.877 29.7996C486.792 29.8422 486.707 29.8422 486.621 29.7996C486.536 29.7569 486.472 29.6929 486.429 29.6076C486.387 29.5436 486.365 29.4582 486.365 29.3516C486.365 29.2449 486.419 29.1596 486.525 29.0956Z" fill="#7B67B2"/>
<path d="M479.449 24.6476C479.449 24.5196 479.502 24.4022 479.609 24.2956C479.737 24.1889 479.876 24.0822 480.025 23.9756C480.174 23.8689 480.302 23.7409 480.409 23.5916C480.537 23.4209 480.601 23.2182 480.601 22.9836L480.537 14.4716C480.537 13.4476 480.26 12.6369 479.705 12.0396C479.15 11.4422 478.361 11.1436 477.337 11.1436C476.697 11.1436 476.121 11.2502 475.609 11.4636C475.097 11.6769 474.66 11.9329 474.297 12.2316C473.956 12.5089 473.689 12.8076 473.497 13.1276C473.326 13.4262 473.241 13.6609 473.241 13.8316V22.9836C473.241 23.2182 473.294 23.4209 473.401 23.5916C473.529 23.7409 473.668 23.8689 473.817 23.9756C473.966 24.0822 474.094 24.1889 474.201 24.2956C474.329 24.4022 474.393 24.5196 474.393 24.6476C474.393 24.7756 474.329 24.8822 474.201 24.9676C474.137 24.9889 474.073 24.9996 474.009 24.9996H470.233C470.169 24.9996 470.105 24.9889 470.041 24.9676C469.913 24.8822 469.849 24.7756 469.849 24.6476C469.849 24.5196 469.902 24.4022 470.009 24.2956C470.137 24.1889 470.276 24.0822 470.425 23.9756C470.574 23.8689 470.702 23.7409 470.809 23.5916C470.937 23.4209 471.001 23.2182 471.001 22.9836V12.2956C471.001 11.9756 470.937 11.7409 470.809 11.5916C470.681 11.4422 470.532 11.3356 470.361 11.2716C470.212 11.1862 470.073 11.1116 469.945 11.0476C469.817 10.9836 469.753 10.8769 469.753 10.7276C469.753 10.6209 469.817 10.5249 469.945 10.4396C470.009 10.4182 470.073 10.3969 470.137 10.3756L472.569 9.63956C472.697 9.5969 472.814 9.57556 472.921 9.57556C473.006 9.5969 473.081 9.65023 473.145 9.73556C473.209 9.79956 473.241 9.92756 473.241 10.1196V11.4636C473.988 10.7809 474.788 10.2582 475.641 9.89556C476.516 9.5329 477.326 9.35156 478.073 9.35156C478.777 9.35156 479.417 9.4689 479.993 9.70356C480.569 9.93823 481.07 10.2796 481.497 10.7276C481.924 11.1756 482.254 11.7089 482.489 12.3276C482.724 12.9462 482.841 13.6396 482.841 14.4076V22.9836C482.841 23.2182 482.894 23.4209 483.001 23.5916C483.129 23.7409 483.268 23.8689 483.417 23.9756C483.566 24.0822 483.694 24.1889 483.801 24.2956C483.929 24.4022 483.993 24.5196 483.993 24.6476C483.993 24.7756 483.929 24.8822 483.801 24.9676C483.737 24.9889 483.673 24.9996 483.609 24.9996H479.833C479.769 24.9996 479.705 24.9889 479.641 24.9676C479.513 24.8822 479.449 24.7756 479.449 24.6476Z" fill="#7B67B2"/>
<path d="M463.89 16.4876C462.61 16.4022 461.479 16.4769 460.498 16.7116C460.071 16.7969 459.645 16.9356 459.218 17.1276C458.813 17.2982 458.45 17.5222 458.13 17.7996C457.81 18.0769 457.554 18.4182 457.362 18.8236C457.17 19.2289 457.074 19.7089 457.074 20.2636C457.074 21.3729 457.383 22.2262 458.002 22.8236C458.642 23.4209 459.442 23.7196 460.402 23.7196C461.319 23.7196 462.055 23.4956 462.61 23.0476C463.186 22.5996 463.613 22.0982 463.89 21.5436V16.4876ZM455.954 11.9116C455.954 11.5276 456.093 11.1756 456.37 10.8556C456.647 10.5356 457.01 10.2689 457.458 10.0556C457.906 9.8209 458.418 9.65023 458.994 9.54356C459.57 9.41556 460.146 9.35156 460.722 9.35156C462.45 9.35156 463.783 9.81023 464.722 10.7276C465.682 11.6449 466.162 12.8716 466.162 14.4076V22.9836C466.162 23.2182 466.215 23.4209 466.322 23.5916C466.45 23.7409 466.589 23.8689 466.738 23.9756C466.887 24.0822 467.015 24.1889 467.122 24.2956C467.25 24.4022 467.314 24.5196 467.314 24.6476C467.314 24.7756 467.25 24.8822 467.122 24.9676C467.058 24.9889 466.994 24.9996 466.93 24.9996H464.818C464.647 24.9996 464.487 24.9569 464.338 24.8716C464.231 24.8076 464.125 24.7116 464.018 24.5836C463.911 24.4342 463.858 24.2422 463.858 24.0076V23.3676C463.389 23.9222 462.802 24.3809 462.098 24.7436C461.394 25.0849 460.466 25.2556 459.314 25.2556C457.927 25.2556 456.797 24.8716 455.922 24.1036C455.069 23.3142 454.642 22.2049 454.642 20.7756C454.642 19.5382 454.962 18.5356 455.602 17.7676C456.242 16.9996 457.021 16.4129 457.938 16.0076C458.877 15.6022 459.879 15.3462 460.946 15.2396C462.034 15.1329 463.005 15.1222 463.858 15.2076V14.3116C463.858 13.1169 463.591 12.2102 463.058 11.5916C462.525 10.9729 461.874 10.6636 461.106 10.6636C460.402 10.6636 459.847 10.7809 459.442 11.0156C459.058 11.2502 458.738 11.5169 458.482 11.8156C458.247 12.0929 458.034 12.3596 457.842 12.6156C457.65 12.8502 457.394 12.9676 457.074 12.9676C456.775 12.9676 456.509 12.8716 456.274 12.6796C456.061 12.4876 455.954 12.2316 455.954 11.9116Z" fill="#7B67B2"/>
<path d="M448.86 4.84023C448.86 4.39223 449.01 4.0189 449.308 3.72023C449.607 3.40023 449.98 3.24023 450.428 3.24023C450.876 3.24023 451.25 3.40023 451.548 3.72023C451.868 4.0189 452.028 4.39223 452.028 4.84023C452.028 5.28823 451.868 5.66157 451.548 5.96023C451.25 6.2589 450.876 6.40823 450.428 6.40823C449.98 6.40823 449.607 6.2589 449.308 5.96023C449.01 5.66157 448.86 5.28823 448.86 4.84023ZM451.772 22.9842C451.772 23.2189 451.826 23.4216 451.932 23.5922C452.06 23.7416 452.199 23.8696 452.348 23.9762C452.498 24.0829 452.626 24.1896 452.732 24.2962C452.86 24.4029 452.924 24.5202 452.924 24.6482C452.924 24.7762 452.86 24.8829 452.732 24.9682C452.668 24.9896 452.604 25.0002 452.54 25.0002H448.764C448.7 25.0002 448.636 24.9896 448.572 24.9682C448.444 24.8829 448.38 24.7762 448.38 24.6482C448.38 24.5202 448.434 24.4029 448.54 24.2962C448.668 24.1896 448.807 24.0829 448.956 23.9762C449.106 23.8696 449.234 23.7416 449.34 23.5922C449.468 23.4216 449.532 23.2189 449.532 22.9842V12.2962C449.532 11.9762 449.468 11.7416 449.34 11.5922C449.212 11.4429 449.063 11.3362 448.892 11.2722C448.743 11.1869 448.604 11.1122 448.476 11.0482C448.348 10.9842 448.284 10.8776 448.284 10.7282C448.284 10.6216 448.348 10.5256 448.476 10.4402C448.54 10.4189 448.604 10.3976 448.668 10.3762L451.1 9.64023C451.228 9.59757 451.346 9.57623 451.452 9.57623C451.538 9.59757 451.612 9.6509 451.676 9.73623C451.74 9.80023 451.772 9.92823 451.772 10.1202V22.9842Z" fill="#7B67B2"/>
<path d="M440.725 10.8554H438.997C438.912 10.8554 438.837 10.8341 438.773 10.7914C438.623 10.7488 438.549 10.6314 438.549 10.4394C438.549 10.3114 438.613 10.1941 438.741 10.0874C438.89 9.98077 439.05 9.88477 439.221 9.79944C439.967 9.39411 440.554 8.87144 440.981 8.23144C441.407 7.57011 441.77 6.91944 442.069 6.27944C442.133 6.10877 442.282 6.02344 442.517 6.02344C442.623 6.02344 442.719 6.0661 442.805 6.15144C442.911 6.23677 442.965 6.3861 442.965 6.59944V9.67144H445.717C445.802 9.67144 445.877 9.69277 445.941 9.73544C445.984 9.77811 446.026 9.84211 446.069 9.92744C446.111 9.99144 446.133 10.1088 446.133 10.2794C446.133 10.4288 446.111 10.5461 446.069 10.6314C446.026 10.6954 445.984 10.7488 445.941 10.7914C445.877 10.8341 445.802 10.8554 445.717 10.8554H442.965V21.7354C442.965 22.2474 443.029 22.6741 443.157 23.0154C443.285 23.3354 443.445 23.5808 443.637 23.7514C443.85 23.9221 444.085 24.0394 444.341 24.1034C444.597 24.1674 444.842 24.1994 445.077 24.1994C445.247 24.1994 445.397 24.1888 445.525 24.1674C445.674 24.1461 445.802 24.1248 445.909 24.1034C446.079 24.0608 446.207 24.0821 446.293 24.1674C446.378 24.2528 446.431 24.3594 446.453 24.4874C446.495 24.5941 446.485 24.7114 446.421 24.8394C446.378 24.9674 446.293 25.0528 446.165 25.0954C445.61 25.3088 445.034 25.4154 444.437 25.4154C443.391 25.4154 442.506 25.1274 441.781 24.5514C441.077 23.9754 440.725 23.0154 440.725 21.6714V10.8554Z" fill="#7B67B2"/>
<path d="M431.793 24.6476C431.793 24.5196 431.846 24.4022 431.953 24.2956C432.081 24.1889 432.219 24.0822 432.369 23.9756C432.518 23.8689 432.646 23.7409 432.753 23.5916C432.881 23.4209 432.945 23.2182 432.945 22.9836L432.881 14.4716C432.881 13.4476 432.603 12.6369 432.049 12.0396C431.494 11.4422 430.705 11.1436 429.681 11.1436C429.041 11.1436 428.465 11.2502 427.953 11.4636C427.441 11.6769 427.003 11.9329 426.641 12.2316C426.299 12.5089 426.033 12.8076 425.841 13.1276C425.67 13.4262 425.585 13.6609 425.585 13.8316V22.9836C425.585 23.2182 425.638 23.4209 425.745 23.5916C425.873 23.7409 426.011 23.8689 426.161 23.9756C426.31 24.0822 426.438 24.1889 426.545 24.2956C426.673 24.4022 426.737 24.5196 426.737 24.6476C426.737 24.7756 426.673 24.8822 426.545 24.9676C426.481 24.9889 426.417 24.9996 426.353 24.9996H422.577C422.513 24.9996 422.449 24.9889 422.385 24.9676C422.257 24.8822 422.193 24.7756 422.193 24.6476C422.193 24.5196 422.246 24.4022 422.353 24.2956C422.481 24.1889 422.619 24.0822 422.769 23.9756C422.918 23.8689 423.046 23.7409 423.153 23.5916C423.281 23.4209 423.345 23.2182 423.345 22.9836V12.2956C423.345 11.9756 423.281 11.7409 423.153 11.5916C423.025 11.4422 422.875 11.3356 422.705 11.2716C422.555 11.1862 422.417 11.1116 422.289 11.0476C422.161 10.9836 422.097 10.8769 422.097 10.7276C422.097 10.6209 422.161 10.5249 422.289 10.4396C422.353 10.4182 422.417 10.3969 422.481 10.3756L424.913 9.63956C425.041 9.5969 425.158 9.57556 425.265 9.57556C425.35 9.5969 425.425 9.65023 425.489 9.73556C425.553 9.79956 425.585 9.92756 425.585 10.1196V11.4636C426.331 10.7809 427.131 10.2582 427.985 9.89556C428.859 9.5329 429.67 9.35156 430.417 9.35156C431.121 9.35156 431.761 9.4689 432.337 9.70356C432.913 9.93823 433.414 10.2796 433.841 10.7276C434.267 11.1756 434.598 11.7089 434.833 12.3276C435.067 12.9462 435.185 13.6396 435.185 14.4076V22.9836C435.185 23.2182 435.238 23.4209 435.345 23.5916C435.473 23.7409 435.611 23.8689 435.761 23.9756C435.91 24.0822 436.038 24.1889 436.145 24.2956C436.273 24.4022 436.337 24.5196 436.337 24.6476C436.337 24.7756 436.273 24.8822 436.145 24.9676C436.081 24.9889 436.017 24.9996 435.953 24.9996H432.177C432.113 24.9996 432.049 24.9889 431.985 24.9676C431.857 24.8822 431.793 24.7756 431.793 24.6476Z" fill="#7B67B2"/>
<path d="M416.234 16.4876C414.954 16.4022 413.823 16.4769 412.842 16.7116C412.415 16.7969 411.989 16.9356 411.562 17.1276C411.157 17.2982 410.794 17.5222 410.474 17.7996C410.154 18.0769 409.898 18.4182 409.706 18.8236C409.514 19.2289 409.418 19.7089 409.418 20.2636C409.418 21.3729 409.727 22.2262 410.346 22.8236C410.986 23.4209 411.786 23.7196 412.746 23.7196C413.663 23.7196 414.399 23.4956 414.954 23.0476C415.53 22.5996 415.957 22.0982 416.234 21.5436V16.4876ZM408.298 11.9116C408.298 11.5276 408.437 11.1756 408.714 10.8556C408.991 10.5356 409.354 10.2689 409.802 10.0556C410.25 9.8209 410.762 9.65023 411.338 9.54356C411.914 9.41556 412.49 9.35156 413.066 9.35156C414.794 9.35156 416.127 9.81023 417.066 10.7276C418.026 11.6449 418.506 12.8716 418.506 14.4076V22.9836C418.506 23.2182 418.559 23.4209 418.666 23.5916C418.794 23.7409 418.933 23.8689 419.082 23.9756C419.231 24.0822 419.359 24.1889 419.466 24.2956C419.594 24.4022 419.658 24.5196 419.658 24.6476C419.658 24.7756 419.594 24.8822 419.466 24.9676C419.402 24.9889 419.338 24.9996 419.274 24.9996H417.162C416.991 24.9996 416.831 24.9569 416.682 24.8716C416.575 24.8076 416.469 24.7116 416.362 24.5836C416.255 24.4342 416.202 24.2422 416.202 24.0076V23.3676C415.733 23.9222 415.146 24.3809 414.442 24.7436C413.738 25.0849 412.81 25.2556 411.658 25.2556C410.271 25.2556 409.141 24.8716 408.266 24.1036C407.413 23.3142 406.986 22.2049 406.986 20.7756C406.986 19.5382 407.306 18.5356 407.946 17.7676C408.586 16.9996 409.365 16.4129 410.282 16.0076C411.221 15.6022 412.223 15.3462 413.29 15.2396C414.378 15.1329 415.349 15.1222 416.202 15.2076V14.3116C416.202 13.1169 415.935 12.2102 415.402 11.5916C414.869 10.9729 414.218 10.6636 413.45 10.6636C412.746 10.6636 412.191 10.7809 411.786 11.0156C411.402 11.2502 411.082 11.5169 410.826 11.8156C410.591 12.0929 410.378 12.3596 410.186 12.6156C409.994 12.8502 409.738 12.9676 409.418 12.9676C409.119 12.9676 408.853 12.8716 408.618 12.6796C408.405 12.4876 408.298 12.2316 408.298 11.9116Z" fill="#7B67B2"/>
<path d="M401.204 4.84023C401.204 4.39223 401.353 4.0189 401.652 3.72023C401.951 3.40023 402.324 3.24023 402.772 3.24023C403.22 3.24023 403.593 3.40023 403.892 3.72023C404.212 4.0189 404.372 4.39223 404.372 4.84023C404.372 5.28823 404.212 5.66157 403.892 5.96023C403.593 6.2589 403.22 6.40823 402.772 6.40823C402.324 6.40823 401.951 6.2589 401.652 5.96023C401.353 5.66157 401.204 5.28823 401.204 4.84023ZM404.116 22.9842C404.116 23.2189 404.169 23.4216 404.276 23.5922C404.404 23.7416 404.543 23.8696 404.692 23.9762C404.841 24.0829 404.969 24.1896 405.076 24.2962C405.204 24.4029 405.268 24.5202 405.268 24.6482C405.268 24.7762 405.204 24.8829 405.076 24.9682C405.012 24.9896 404.948 25.0002 404.884 25.0002H401.108C401.044 25.0002 400.98 24.9896 400.916 24.9682C400.788 24.8829 400.724 24.7762 400.724 24.6482C400.724 24.5202 400.777 24.4029 400.884 24.2962C401.012 24.1896 401.151 24.0829 401.3 23.9762C401.449 23.8696 401.577 23.7416 401.684 23.5922C401.812 23.4216 401.876 23.2189 401.876 22.9842V12.2962C401.876 11.9762 401.812 11.7416 401.684 11.5922C401.556 11.4429 401.407 11.3362 401.236 11.2722C401.087 11.1869 400.948 11.1122 400.82 11.0482C400.692 10.9842 400.628 10.8776 400.628 10.7282C400.628 10.6216 400.692 10.5256 400.82 10.4402C400.884 10.4189 400.948 10.3976 401.012 10.3762L403.444 9.64023C403.572 9.59757 403.689 9.57623 403.796 9.57623C403.881 9.59757 403.956 9.6509 404.02 9.73623C404.084 9.80023 404.116 9.92823 404.116 10.1202V22.9842Z" fill="#7B67B2"/>
<path d="M390.841 22.9835C390.841 23.2181 390.916 23.4208 391.065 23.5915C391.214 23.7408 391.385 23.8688 391.577 23.9755C391.769 24.0821 391.94 24.1888 392.089 24.2955C392.238 24.4021 392.313 24.5195 392.313 24.6475C392.313 24.7755 392.249 24.8821 392.121 24.9675C392.057 24.9888 391.993 24.9995 391.929 24.9995H387.513C387.449 24.9995 387.385 24.9888 387.321 24.9675C387.193 24.8821 387.129 24.7755 387.129 24.6475C387.129 24.5195 387.204 24.4021 387.353 24.2955C387.502 24.1888 387.673 24.0821 387.865 23.9755C388.057 23.8688 388.228 23.7408 388.377 23.5915C388.526 23.4208 388.601 23.2181 388.601 22.9835V5.28747C388.601 4.9888 388.526 4.7328 388.377 4.51947C388.249 4.30614 388.014 4.19947 387.673 4.19947H384.825C384.142 4.19947 383.641 4.3488 383.321 4.64747C383.001 4.94614 382.756 5.2768 382.585 5.63947C382.436 6.00214 382.297 6.3328 382.169 6.63147C382.041 6.93014 381.828 7.07947 381.529 7.07947C381.401 7.07947 381.294 6.99414 381.209 6.82347C381.166 6.75947 381.145 6.6848 381.145 6.59947V3.43147C381.166 3.3248 381.198 3.2288 381.241 3.14347C381.326 2.95147 381.497 2.85547 381.753 2.85547C381.881 2.85547 381.998 2.86614 382.105 2.88747C382.212 2.88747 382.318 2.88747 382.425 2.88747C382.532 2.88747 382.66 2.89813 382.809 2.91947C382.98 2.91947 383.182 2.91947 383.417 2.91947H396.025C396.26 2.91947 396.452 2.91947 396.601 2.91947C396.772 2.89813 396.91 2.88747 397.017 2.88747C397.124 2.88747 397.23 2.88747 397.337 2.88747C397.444 2.86614 397.561 2.85547 397.689 2.85547C397.945 2.85547 398.116 2.95147 398.201 3.14347C398.244 3.2288 398.276 3.3248 398.297 3.43147V6.59947C398.297 6.6848 398.276 6.75947 398.233 6.82347C398.19 6.99414 398.084 7.07947 397.913 7.07947C397.614 7.07947 397.401 6.93014 397.273 6.63147C397.145 6.3328 396.996 6.00214 396.825 5.63947C396.676 5.2768 396.441 4.94614 396.121 4.64747C395.801 4.3488 395.3 4.19947 394.617 4.19947H391.769C391.428 4.19947 391.182 4.30614 391.033 4.51947C390.905 4.7328 390.841 4.9888 390.841 5.28747V22.9835Z" fill="#7B67B2"/>
<path d="M379.472 29.0956C379.578 29.1596 379.632 29.2449 379.632 29.3516C379.632 29.4582 379.61 29.5436 379.568 29.6076C379.525 29.6929 379.461 29.7569 379.376 29.7996C379.29 29.8422 379.205 29.8422 379.12 29.7996C377.392 28.9889 375.952 27.8369 374.8 26.3436C373.648 24.8502 372.784 23.1862 372.208 21.3516C371.632 19.5169 371.344 17.5969 371.344 15.5916C371.344 13.5862 371.632 11.6662 372.208 9.83156C372.784 7.9969 373.648 6.3329 374.8 4.83956C375.952 3.34623 377.392 2.19423 379.12 1.38356C379.205 1.3409 379.29 1.3409 379.376 1.38356C379.461 1.42623 379.525 1.49023 379.568 1.57556C379.61 1.63956 379.632 1.7249 379.632 1.83156C379.632 1.93823 379.578 2.02356 379.472 2.08756C378.277 2.9409 377.274 4.08223 376.464 5.51156C375.653 6.9409 375.045 8.51956 374.64 10.2476C374.234 11.9542 374.032 13.7356 374.032 15.5916C374.053 17.4476 374.256 19.2396 374.64 20.9676C375.045 22.6742 375.653 24.2422 376.464 25.6716C377.274 27.1009 378.277 28.2422 379.472 29.0956Z" fill="#7B67B2"/>
</svg>
