<svg width="327" height="140" viewBox="0 0 327 140" fill="none" xmlns="http://www.w3.org/2000/svg">
<path d="M190.691 140L244.402 0H272.639L326.349 140H296.137L281.525 99.2L280.538 94L254.472 22.6H262.173L236.503 94L235.121 99.2L220.508 140H190.691ZM223.273 111V84.6H293.373V111H223.273Z" fill="#E9E9E9"/>
<path d="M142.66 140V0H171.095V140H142.66Z" fill="#E9E9E9"/>
<path d="M0 140L45.6142 61.8V73.2L4.14675 0H36.7283L65.953 55.2H56.2773L85.502 0H117.886L76.4186 73.2V61.8L122.033 140H88.8589L55.4874 80H65.953L32.5816 140H0Z" fill="#E9E9E9"/>
</svg>
